<svg width="21" height="21" viewBox="0 0 21 21" fill="none" xmlns="http://www.w3.org/2000/svg">
<path d="M14.8005 18.5126H15.8531V16.0126H18.4847V15.0126H15.8531V12.5126H14.8005V15.0126H12.1689V16.0126H14.8005V18.5126ZM15.3268 20.5126C13.8707 20.5126 12.6296 20.0252 11.6037 19.0506C10.577 18.0752 10.0637 16.8959 10.0637 15.5126C10.0637 14.1292 10.577 12.9499 11.6037 11.9746C12.6296 10.9999 13.8707 10.5126 15.3268 10.5126C16.7829 10.5126 18.0244 10.9999 19.051 11.9746C20.077 12.9499 20.59 14.1292 20.59 15.5126C20.59 16.8959 20.077 18.0752 19.051 19.0506C18.0244 20.0252 16.7829 20.5126 15.3268 20.5126ZM0.589966 18.5126V6.51257L9.01102 0.512573L17.4321 6.51257V8.81257C17.0987 8.71257 16.7566 8.63757 16.4058 8.58757C16.0549 8.53757 15.6952 8.51257 15.3268 8.51257V7.51257L9.01102 3.01257L2.69523 7.51257V16.5126H8.03733C8.08997 16.8626 8.16891 17.2042 8.27418 17.5376C8.37944 17.8709 8.51102 18.1959 8.66891 18.5126H0.589966Z" fill="white"/>
</svg>
