<svg width="13" height="15" viewBox="0 0 13 15" fill="none" xmlns="http://www.w3.org/2000/svg">
<path d="M12.8616 5.42865V14.8239H3.40245V12.7361H1.82592V10.6482H0.24939V1.25298H8.33527C8.05198 1.36172 7.77897 1.50308 7.51621 1.67707C7.25346 1.85105 7.00096 2.05766 6.75874 2.29689H1.03765V9.60433H8.92031V5.42865H9.31444L9.70857 5.95061V10.6482H2.61419V11.6922H10.4968V6.47257L11.2851 5.42865V12.7361H4.19072V13.78H12.0734V5.42865H12.8616ZM5.76725 7.51649C5.76725 7.03803 5.81446 6.57588 5.90889 6.13003C6.00332 5.68419 6.13469 5.26826 6.30302 4.88223C6.47135 4.49619 6.67663 4.1455 6.91885 3.83015C7.16108 3.5148 7.42794 3.24295 7.71943 3.01459C8.01093 2.78623 8.325 2.60953 8.66166 2.48447C8.99831 2.35942 9.34729 2.29689 9.70857 2.29689H10.7247L9.82558 1.09802L10.3798 0.364014L12.2335 2.81885L10.3798 5.27369L9.82558 4.53969L10.7247 3.34081H9.70857C9.27339 3.34081 8.86488 3.44956 8.48307 3.66704C8.10125 3.88452 7.7687 4.18356 7.48542 4.56416C7.20214 4.94475 6.97633 5.38787 6.808 5.89352C6.63968 6.39917 6.55551 6.94016 6.55551 7.51649H5.76725Z" fill="black"/>
</svg>
