<svg width="22" height="21" viewBox="0 0 22 21" fill="none" xmlns="http://www.w3.org/2000/svg">
<path d="M19.5645 2.76953C20.5044 2.76953 21.2734 3.66953 21.2734 4.76953V14.7695C21.2734 15.8695 20.5044 16.7695 19.5645 16.7695H5.89329C4.9534 16.7695 4.18439 15.8695 4.18439 14.7695V2.76953C4.18439 1.66953 4.9534 0.769531 5.89329 0.769531H11.02L12.7289 2.76953H19.5645ZM2.4755 4.76953V18.7695H17.8556V20.7695H2.4755C1.5356 20.7695 0.766602 19.8695 0.766602 18.7695V4.76953H2.4755ZM5.89329 4.76953V14.7695H19.5645V4.76953H5.89329ZM12.7289 8.76953H14.4378V6.76953H16.1467V8.76953H17.8556V10.7695H16.1467V12.7695H14.4378V10.7695H12.7289V8.76953Z" fill="white"/>
</svg>
