<svg width="21" height="21" viewBox="0 0 21 21" fill="none" xmlns="http://www.w3.org/2000/svg">
<path d="M1.55028 4.64859C1.26079 4.64859 1.0183 4.5009 0.822817 4.20551C0.626649 3.91115 0.528564 3.54602 0.528564 3.11013C0.528564 2.67423 0.626649 2.30859 0.822817 2.0132C1.0183 1.71884 1.26079 1.57166 1.55028 1.57166H4.61541C4.90489 1.57166 5.14772 1.71884 5.34389 2.0132C5.53938 2.30859 5.63712 2.67423 5.63712 3.11013C5.63712 3.54602 5.53938 3.91115 5.34389 4.20551C5.14772 4.5009 4.90489 4.64859 4.61541 4.64859H1.55028ZM1.55028 12.3409C1.26079 12.3409 1.0183 12.1932 0.822817 11.8978C0.626649 11.6035 0.528564 11.2383 0.528564 10.8024C0.528564 10.3665 0.626649 10.0009 0.822817 9.70551C1.0183 9.41115 1.26079 9.26397 1.55028 9.26397H4.61541C4.90489 9.26397 5.14772 9.41115 5.34389 9.70551C5.53938 10.0009 5.63712 10.3665 5.63712 10.8024C5.63712 11.2383 5.53938 11.6035 5.34389 11.8978C5.14772 12.1932 4.90489 12.3409 4.61541 12.3409H1.55028ZM18.8172 18.9563L15.5988 14.1101C15.1901 14.546 14.7433 14.8727 14.2583 15.0901C13.7727 15.3086 13.2829 15.4178 12.7891 15.4178C11.3757 15.4178 10.1711 14.6676 9.17531 13.167C8.1788 11.6676 7.68054 9.85372 7.68054 7.72551C7.68054 5.59731 8.1788 3.78295 9.17531 2.28243C10.1711 0.782947 11.3757 0.0332031 12.7891 0.0332031C14.2025 0.0332031 15.4074 0.782947 16.4039 2.28243C17.3997 3.78295 17.8977 5.59731 17.8977 7.72551C17.8977 8.4691 17.8255 9.20654 17.6811 9.93782C17.536 10.6681 17.3187 11.3409 17.0292 11.9563L20.2476 16.8024C20.4349 17.0845 20.5286 17.4435 20.5286 17.8794C20.5286 18.3153 20.4349 18.6742 20.2476 18.9563C20.0603 19.2383 19.8219 19.3794 19.5324 19.3794C19.2429 19.3794 19.0045 19.2383 18.8172 18.9563ZM12.7891 12.3409C13.6405 12.3409 14.3642 11.8922 14.9602 10.9947C15.5562 10.0973 15.8542 9.00756 15.8542 7.72551C15.8542 6.44346 15.5562 5.35372 14.9602 4.45628C14.3642 3.55884 13.6405 3.11013 12.7891 3.11013C11.9377 3.11013 11.214 3.55884 10.618 4.45628C10.022 5.35372 9.72397 6.44346 9.72397 7.72551C9.72397 9.00756 10.022 10.0973 10.618 10.9947C11.214 11.8922 11.9377 12.3409 12.7891 12.3409ZM1.55028 20.0332C1.26079 20.0332 1.0183 19.8855 0.822817 19.5901C0.626649 19.2958 0.528564 18.9306 0.528564 18.4947C0.528564 18.0588 0.626649 17.6937 0.822817 17.3994C1.0183 17.104 1.26079 16.9563 1.55028 16.9563H9.72397C10.0135 16.9563 10.2563 17.104 10.4524 17.3994C10.6479 17.6937 10.7457 18.0588 10.7457 18.4947C10.7457 18.9306 10.6479 19.2958 10.4524 19.5901C10.2563 19.8855 10.0135 20.0332 9.72397 20.0332H1.55028Z" fill="white"/>
</svg>
