<svg width="22" height="20" viewBox="0 0 22 20" fill="none" xmlns="http://www.w3.org/2000/svg">
<path d="M14.779 12.1582C14.967 12.2405 15.1594 12.2487 15.3563 12.1829C15.5524 12.1171 15.6847 11.9938 15.7531 11.8128C15.8898 11.5168 15.9838 11.2168 16.035 10.9128C16.0863 10.6082 16.1119 10.2996 16.1119 9.98712C16.1119 9.36211 15.9882 8.74103 15.7408 8.12391C15.4926 7.50745 15.1208 6.96072 14.6252 6.48373C14.1296 6.00674 13.5701 5.65311 12.9467 5.42284C12.3226 5.19257 11.6858 5.07744 11.0365 5.07744L11.4979 4.63335C11.6517 4.48531 11.7245 4.31261 11.7163 4.11524C11.7074 3.91786 11.626 3.74516 11.4722 3.59713C11.3184 3.4491 11.139 3.37508 10.9339 3.37508C10.7289 3.37508 10.5494 3.4491 10.3956 3.59713L8.37055 5.52153C8.26801 5.62022 8.21675 5.73535 8.21675 5.86694C8.21675 5.99852 8.26801 6.11365 8.37055 6.21234L10.3956 8.13674C10.5494 8.26832 10.7289 8.33806 10.9339 8.34596C11.139 8.35451 11.3184 8.28477 11.4722 8.13674C11.626 7.98871 11.7029 7.81601 11.7029 7.61863C11.7029 7.42126 11.626 7.24856 11.4722 7.10052L10.8827 6.53307C11.3441 6.53307 11.814 6.61926 12.2925 6.79163C12.771 6.96467 13.1812 7.21566 13.5229 7.54462C13.8647 7.87357 14.1255 8.25187 14.3053 8.67952C14.4844 9.10716 14.5739 9.53481 14.5739 9.96245C14.5739 10.1598 14.5613 10.3572 14.536 10.5546C14.51 10.7519 14.4543 10.9411 14.3688 11.122C14.2834 11.3523 14.2793 11.5618 14.3565 11.7507C14.4331 11.9401 14.5739 12.076 14.779 12.1582ZM10.4982 16.3771C10.652 16.5251 10.8314 16.5992 11.0365 16.5992C11.2415 16.5992 11.421 16.5251 11.5748 16.3771L13.5998 14.4527C13.7024 14.354 13.7536 14.2389 13.7536 14.1073C13.7536 13.9757 13.7024 13.8606 13.5998 13.7619L11.5748 11.8375C11.421 11.7059 11.2415 11.6359 11.0365 11.6273C10.8314 11.6194 10.652 11.6895 10.4982 11.8375C10.3443 11.9855 10.2674 12.1582 10.2674 12.3556C10.2674 12.553 10.3443 12.7257 10.4982 12.8737L11.0621 13.4165C10.5836 13.433 10.1181 13.3589 9.66557 13.1945C9.21236 13.03 8.80632 12.775 8.44745 12.4296C8.10567 12.1007 7.84489 11.7224 7.66511 11.2947C7.48601 10.8671 7.39647 10.4394 7.39647 10.0118C7.39647 9.79797 7.40945 9.59632 7.43543 9.40684C7.46072 9.21802 7.51609 9.02492 7.60154 8.82755C7.66989 8.64662 7.67844 8.46964 7.62717 8.29661C7.5759 8.12424 7.47337 7.98871 7.31957 7.89002C7.1145 7.75844 6.89644 7.72554 6.66539 7.79133C6.43503 7.85713 6.27713 7.98871 6.19168 8.18608C6.05497 8.48215 5.96508 8.77393 5.92201 9.06144C5.87963 9.34961 5.85844 9.65817 5.85844 9.98712C5.85844 10.6121 5.98661 11.2289 6.24295 11.8375C6.49929 12.4461 6.87525 12.9889 7.37083 13.4658C7.86642 13.9428 8.42182 14.3007 9.03703 14.5396C9.65224 14.7777 10.2845 14.905 10.9339 14.9215L10.4982 15.3409C10.3443 15.4889 10.2674 15.6616 10.2674 15.859C10.2674 16.0564 10.3443 16.2291 10.4982 16.3771ZM10.9852 19.8558C9.56679 19.8558 8.23384 19.5966 6.98633 19.0782C5.73882 18.5604 4.65365 17.8574 3.73084 16.9692C2.80802 16.0811 2.07763 15.0366 1.53967 13.8359C1.00101 12.6352 0.731689 11.3523 0.731689 9.98712C0.731689 8.62195 1.00101 7.33902 1.53967 6.13833C2.07763 4.93763 2.80802 3.89319 3.73084 3.00501C4.65365 2.11682 5.73882 1.41351 6.98633 0.895076C8.23384 0.377297 9.56679 0.118408 10.9852 0.118408C12.4036 0.118408 13.7365 0.377297 14.9841 0.895076C16.2316 1.41351 17.3167 2.11682 18.2395 3.00501C19.1624 3.89319 19.8928 4.93763 20.4307 6.13833C20.9694 7.33902 21.2387 8.62195 21.2387 9.98712C21.2387 11.3523 20.9694 12.6352 20.4307 13.8359C19.8928 15.0366 19.1624 16.0811 18.2395 16.9692C17.3167 17.8574 16.2316 18.5604 14.9841 19.0782C13.7365 19.5966 12.4036 19.8558 10.9852 19.8558ZM10.9852 17.8821C13.2581 17.8821 15.1936 17.1133 16.7918 15.5758C18.3892 14.0376 19.188 12.1747 19.188 9.98712C19.188 7.79956 18.3892 5.93667 16.7918 4.39847C15.1936 2.86092 13.2581 2.09215 10.9852 2.09215C8.71233 2.09215 6.77715 2.86092 5.17966 4.39847C3.58148 5.93667 2.78239 7.79956 2.78239 9.98712C2.78239 12.1747 3.58148 14.0376 5.17966 15.5758C6.77715 17.1133 8.71233 17.8821 10.9852 17.8821Z" fill="white"/>
</svg>
