<svg width="13" height="13" viewBox="0 0 13 13" fill="none" xmlns="http://www.w3.org/2000/svg">
<path d="M2.90869 12.5554C2.49619 12.5554 2.14319 12.425 1.84969 12.1641C1.55569 11.9028 1.40869 11.5888 1.40869 11.2221V2.55542C1.19619 2.55542 1.01794 2.49164 0.873942 2.36409C0.730442 2.23609 0.658691 2.07764 0.658691 1.88875C0.658691 1.69986 0.730442 1.54142 0.873942 1.41342C1.01794 1.28586 1.19619 1.22209 1.40869 1.22209H4.40869C4.40869 1.0332 4.48069 0.874753 4.62469 0.746753C4.76819 0.619198 4.94619 0.55542 5.15869 0.55542H8.15869C8.37119 0.55542 8.54944 0.619198 8.69344 0.746753C8.83694 0.874753 8.90869 1.0332 8.90869 1.22209H11.9087C12.1212 1.22209 12.2992 1.28586 12.4427 1.41342C12.5867 1.54142 12.6587 1.69986 12.6587 1.88875C12.6587 2.07764 12.5867 2.23609 12.4427 2.36409C12.2992 2.49164 12.1212 2.55542 11.9087 2.55542V11.2221C11.9087 11.5888 11.7619 11.9028 11.4684 12.1641C11.1744 12.425 10.8212 12.5554 10.4087 12.5554H2.90869ZM2.90869 2.55542V11.2221H10.4087V2.55542H2.90869ZM6.65869 7.82209L8.08369 9.08875C8.23369 9.21098 8.41194 9.27209 8.61844 9.27209C8.82444 9.27209 8.99619 9.21098 9.13369 9.08875C9.28369 8.95542 9.35869 8.79698 9.35869 8.61342C9.35869 8.43031 9.28369 8.27764 9.13369 8.15542L7.70869 6.88875L9.13369 5.62209C9.28369 5.48875 9.35869 5.33031 9.35869 5.14675C9.35869 4.96364 9.28369 4.81098 9.13369 4.68875C8.99619 4.55542 8.82444 4.48875 8.61844 4.48875C8.41194 4.48875 8.23369 4.55542 8.08369 4.68875L6.65869 5.95542L5.23369 4.68875C5.09619 4.55542 4.92444 4.48875 4.71844 4.48875C4.51194 4.48875 4.33369 4.55542 4.18369 4.68875C4.04619 4.81098 3.97744 4.96364 3.97744 5.14675C3.97744 5.33031 4.04619 5.48875 4.18369 5.62209L5.60869 6.88875L4.18369 8.15542C4.04619 8.27764 3.97744 8.43031 3.97744 8.61342C3.97744 8.79698 4.04619 8.95542 4.18369 9.08875C4.33369 9.21098 4.51194 9.27209 4.71844 9.27209C4.92444 9.27209 5.09619 9.21098 5.23369 9.08875L6.65869 7.82209Z" fill="black"/>
</svg>
