<svg width="13" height="13" viewBox="0 0 13 13" fill="none" xmlns="http://www.w3.org/2000/svg">
<g clip-path="url(#clip0_36_59)">
<path d="M6.83551 3.4657V5.4657H8.08551M7.42801 1.4657H5.08551C4.82029 1.4657 4.56594 1.57106 4.3784 1.75859C4.19087 1.94613 4.08551 2.20048 4.08551 2.4657V8.4657C4.08551 8.73091 4.19087 8.98527 4.3784 9.1728C4.56594 9.36034 4.82029 9.4657 5.08551 9.4657H9.08551C9.35073 9.4657 9.60508 9.36034 9.79262 9.1728C9.98015 8.98527 10.0855 8.73091 10.0855 8.4657V4.0867C10.0855 3.95348 10.0589 3.8216 10.0072 3.69882C9.95548 3.57604 9.87978 3.46482 9.78451 3.3717L8.12701 1.7507C7.94019 1.56803 7.6893 1.46573 7.42801 1.4657Z" stroke="white" stroke-width="2" stroke-linecap="round" stroke-linejoin="round"/>
<path d="M8.08551 9.4657V10.4657C8.08551 10.7309 7.98015 10.9853 7.79262 11.1728C7.60508 11.3603 7.35073 11.4657 7.08551 11.4657H3.08551C2.82029 11.4657 2.56594 11.3603 2.3784 11.1728C2.19087 10.9853 2.08551 10.7309 2.08551 10.4657V4.9657C2.08551 4.70048 2.19087 4.44613 2.3784 4.25859C2.56594 4.07106 2.82029 3.9657 3.08551 3.9657H4.08551" stroke="white" stroke-width="2" stroke-linecap="round" stroke-linejoin="round"/>
<path d="M6.83551 3.4657V5.4657H8.08551M7.42801 1.4657H5.08551C4.82029 1.4657 4.56594 1.57106 4.3784 1.75859C4.19087 1.94613 4.08551 2.20048 4.08551 2.4657V8.4657C4.08551 8.73091 4.19087 8.98527 4.3784 9.1728C4.56594 9.36034 4.82029 9.4657 5.08551 9.4657H9.08551C9.35073 9.4657 9.60508 9.36034 9.79262 9.1728C9.98015 8.98527 10.0855 8.73091 10.0855 8.4657V4.0867C10.0855 3.95348 10.0589 3.8216 10.0072 3.69882C9.95548 3.57604 9.87978 3.46482 9.78451 3.3717L8.12701 1.7507C7.94019 1.56803 7.6893 1.46573 7.42801 1.4657Z" stroke="white" stroke-width="2" stroke-linecap="round" stroke-linejoin="round"/>
<path d="M8.08551 9.4657V10.4657C8.08551 10.7309 7.98015 10.9853 7.79262 11.1728C7.60508 11.3603 7.35073 11.4657 7.08551 11.4657H3.08551C2.82029 11.4657 2.56594 11.3603 2.3784 11.1728C2.19087 10.9853 2.08551 10.7309 2.08551 10.4657V4.9657C2.08551 4.70048 2.19087 4.44613 2.3784 4.25859C2.56594 4.07106 2.82029 3.9657 3.08551 3.9657H4.08551" stroke="white" stroke-width="2" stroke-linecap="round" stroke-linejoin="round"/>
</g>
<defs>
<clipPath id="clip0_36_59">
<rect width="12" height="12" fill="white" transform="translate(0.0855103 0.465698)"/>
</clipPath>
</defs>
</svg>
