<svg width="9" height="12" viewBox="0 0 9 12" fill="none" xmlns="http://www.w3.org/2000/svg">
<path d="M8.22232 1.85822H7.09732V1.48322C7.09732 1.2843 7.0183 1.09354 6.87765 0.952885C6.737 0.812233 6.54623 0.733215 6.34732 0.733215H3.34732C3.14841 0.733215 2.95764 0.812233 2.81699 0.952885C2.67634 1.09354 2.59732 1.2843 2.59732 1.48322V1.85822H1.47232C1.27341 1.85822 1.08264 1.93723 0.94199 2.07789C0.801338 2.21854 0.722321 2.4093 0.722321 2.60822V10.4832C0.722321 10.6821 0.801338 10.8729 0.94199 11.0135C1.08264 11.1542 1.27341 11.2332 1.47232 11.2332H8.22232C8.42123 11.2332 8.612 11.1542 8.75265 11.0135C8.8933 10.8729 8.97232 10.6821 8.97232 10.4832V2.60822C8.97232 2.4093 8.8933 2.21854 8.75265 2.07789C8.612 1.93723 8.42123 1.85822 8.22232 1.85822ZM3.34732 1.48322H6.34732V2.98322H3.34732V1.48322ZM8.22232 10.4832H1.47232V2.60822H2.59732V3.73322H7.09732V2.60822H8.22232V10.4832Z" fill="black"/>
</svg>
