<svg width="15" height="14" viewBox="0 0 15 14" fill="none" xmlns="http://www.w3.org/2000/svg">
<path d="M8.78551 3.56524V2.32397C8.7855 2.13592 8.75106 1.94992 8.68437 1.77773C8.61768 1.60553 8.52018 1.45089 8.39804 1.32356C8.2759 1.19623 8.13178 1.099 7.97478 1.038C7.81778 0.976998 7.65131 0.953561 7.48591 0.969169L2.68591 1.4219C2.38594 1.45021 2.10632 1.6052 1.90249 1.85615C1.69866 2.1071 1.58553 2.43567 1.58551 2.7767V11.1516C1.58553 11.4926 1.69866 11.8212 1.90249 12.0721C2.10632 12.3231 2.38594 12.4781 2.68591 12.5064L7.48591 12.9598C7.65136 12.9754 7.81788 12.9519 7.97492 12.8909C8.13196 12.8299 8.27611 12.7326 8.39826 12.6052C8.52041 12.4778 8.61789 12.323 8.68455 12.1508C8.75121 11.9785 8.78559 11.7924 8.78551 11.6043V10.363M8.18551 6.96414H13.5855H8.18551ZM13.5855 6.96414L11.5857 4.24502L13.5855 6.96414ZM13.5855 6.96414L11.5857 9.68325L13.5855 6.96414Z" stroke="white" stroke-width="1.2" stroke-linecap="round" stroke-linejoin="round"/>
</svg>
