<svg width="22" height="23" viewBox="0 0 22 23" fill="none" xmlns="http://www.w3.org/2000/svg">
<path d="M3.8881 11.1538V8.65381C3.8881 6.66468 4.63179 4.75703 5.95558 3.35051C7.27937 1.94399 9.0748 1.15381 10.9469 1.15381C12.819 1.15381 14.6145 1.94399 15.9383 3.35051C17.2621 4.75703 18.0057 6.66468 18.0057 8.65381V11.1538M1.53516 18.6538C1.53516 19.3168 1.78305 19.9527 2.22432 20.4216C2.66558 20.8904 3.26406 21.1538 3.8881 21.1538C4.51214 21.1538 5.11062 20.8904 5.55188 20.4216C5.99314 19.9527 6.24104 19.3168 6.24104 18.6538C6.24104 17.9908 5.99314 17.3549 5.55188 16.886C5.11062 16.4172 4.51214 16.1538 3.8881 16.1538C3.26406 16.1538 2.66558 16.4172 2.22432 16.886C1.78305 17.3549 1.53516 17.9908 1.53516 18.6538ZM15.6528 18.6538C15.6528 19.3168 15.9007 19.9527 16.342 20.4216C16.7832 20.8904 17.3817 21.1538 18.0057 21.1538C18.6298 21.1538 19.2283 20.8904 19.6695 20.4216C20.1108 19.9527 20.3587 19.3168 20.3587 18.6538C20.3587 17.9908 20.1108 17.3549 19.6695 16.886C19.2283 16.4172 18.6298 16.1538 18.0057 16.1538C17.3817 16.1538 16.7832 16.4172 16.342 16.886C15.9007 17.3549 15.6528 17.9908 15.6528 18.6538Z" stroke="white" stroke-width="2" stroke-linecap="round" stroke-linejoin="round"/>
</svg>
