<svg width="13" height="13" viewBox="0 0 13 13" fill="none" xmlns="http://www.w3.org/2000/svg">
<path d="M10.0723 12.0985L11.2973 12.9673L10.9723 11.3289L12.0723 10.2327L10.6273 10.0869L10.0723 8.54752L9.50727 10.0869L8.07227 10.2327L9.16227 11.3289L8.82227 12.9673L10.0723 12.0985ZM7.11227 11.463H1.07227C0.809979 11.4522 0.560937 11.3259 0.375358 11.1095C0.189779 10.8931 0.0814683 10.6027 0.0722656 10.2968L0.0722656 2.13353C0.0922656 1.49796 0.527266 0.99067 1.07227 0.967346H11.0723C11.6173 0.99067 12.0523 1.49796 12.0723 2.13353V8.27347C11.7823 7.96443 11.4473 7.73703 11.0723 7.57959V2.13353H1.07227V10.2968H7.11227C7.08727 10.4892 7.07227 10.6816 7.07227 10.8799C7.07227 11.0781 7.08727 11.2764 7.11227 11.463ZM7.07227 9.13061H2.07227V8.40175C2.07227 7.43382 3.74227 6.94402 4.57227 6.94402C5.40227 6.94402 7.07227 7.43382 7.07227 8.40175V9.13061ZM7.07227 5.63207H9.07227V6.21516H7.07227V5.63207ZM4.57227 3.29971C3.88727 3.29971 3.32227 3.9586 3.32227 4.75743C3.32227 5.55627 3.88727 6.21516 4.57227 6.21516C5.25727 6.21516 5.82227 5.55627 5.82227 4.75743C5.82227 3.9586 5.25727 3.29971 4.57227 3.29971ZM7.07227 4.46589H10.0723V5.04898H7.07227V4.46589ZM7.07227 3.29971H10.0723V3.8828H7.07227V3.29971Z" fill="black"/>
</svg>
