<svg width="13" height="13" viewBox="0 0 13 13" fill="none" xmlns="http://www.w3.org/2000/svg">
<path d="M1.59527 10.9534V2.1113H5.90296V6.53235H10.2107V7.16393C10.6414 7.16393 11.0537 7.24604 11.4414 7.38499V4.63762L7.74912 0.848145H1.59527C0.912194 0.848145 0.364502 1.41025 0.364502 2.1113V10.9534C0.364502 11.2884 0.494172 11.6097 0.724986 11.8466C0.9558 12.0835 1.26885 12.2166 1.59527 12.2166H6.73373C6.59835 11.8187 6.51835 11.3955 6.51835 10.9534H1.59527ZM7.13373 1.79551L10.5183 5.2692H7.13373V1.79551ZM12.3645 9.84814L9.44143 12.8481L7.74912 10.9534L8.46296 10.2208L9.44143 11.225L11.6507 8.95762L12.3645 9.84814Z" fill="white"/>
</svg>
