<svg width="14" height="14" viewBox="0 0 14 14" fill="none" xmlns="http://www.w3.org/2000/svg">
<path d="M8.68099 12.6182C9.67337 12.3099 10.5721 11.7396 11.2898 10.9627C11.0589 10.6778 10.9149 10.3277 10.8764 9.95719C10.8378 9.58668 10.9064 9.21263 11.0734 8.8829C11.2403 8.55318 11.498 8.28277 11.8135 8.10628C12.129 7.92979 12.4879 7.85525 12.8444 7.8922C12.9256 7.47837 12.9664 7.05707 12.9662 6.63471C12.9662 5.9824 12.8702 5.35318 12.6914 4.76205H12.6662C12.3603 4.76215 12.0594 4.68113 11.7919 4.52664C11.5244 4.37215 11.2992 4.14928 11.1375 3.87908C10.9758 3.60889 10.883 3.30028 10.8678 2.9824C10.8526 2.66451 10.9156 2.34785 11.0507 2.0623C10.3473 1.38091 9.49667 0.885588 8.57059 0.618164C8.41987 0.92603 8.19023 1.18452 7.90707 1.36503C7.62392 1.54554 7.29828 1.64103 6.96619 1.64095C6.6341 1.64103 6.30846 1.54554 6.0253 1.36503C5.74214 1.18452 5.5125 0.92603 5.36179 0.618164C4.43571 0.885588 3.58506 1.38091 2.88169 2.0623C3.01779 2.34985 3.08067 2.66893 3.06432 2.989C3.04796 3.30907 2.95291 3.61942 2.78827 3.89033C2.62363 4.16125 2.39491 4.38366 2.12399 4.53629C1.85308 4.68892 1.54904 4.76665 1.24099 4.76205C1.0583 5.36808 0.965635 5.99957 0.966188 6.63471C0.966188 7.06542 1.00819 7.48614 1.08799 7.8922C1.44444 7.85525 1.80338 7.92979 2.11887 8.10628C2.43437 8.28277 2.69208 8.55318 2.85902 8.8829C3.02596 9.21263 3.09454 9.58668 3.05598 9.95719C3.01743 10.3277 2.87349 10.6778 2.64259 10.9627C3.36024 11.7396 4.25901 12.3099 5.25139 12.6182C5.36792 12.2403 5.59677 11.9107 5.90496 11.6768C6.21314 11.443 6.58474 11.317 6.96619 11.317C7.34764 11.317 7.71923 11.443 8.02742 11.6768C8.3356 11.9107 8.56445 12.2403 8.68099 12.6182Z" stroke="white" stroke-width="1.2" stroke-linejoin="round"/>
<path d="M6.9658 8.819C6.69002 8.819 6.41695 8.76249 6.16216 8.6527C5.90738 8.5429 5.67588 8.38197 5.48087 8.1791C5.28587 7.97622 5.13118 7.73538 5.02565 7.47031C4.92011 7.20524 4.8658 6.92114 4.8658 6.63423C4.8658 6.34732 4.92011 6.06323 5.02565 5.79816C5.13118 5.53309 5.28587 5.29224 5.48087 5.08937C5.67588 4.88649 5.90738 4.72556 6.16216 4.61577C6.41695 4.50597 6.69002 4.44946 6.9658 4.44946C7.52275 4.44946 8.05689 4.67964 8.45072 5.08937C8.84455 5.49909 9.0658 6.0548 9.0658 6.63423C9.0658 7.21367 8.84455 7.76937 8.45072 8.1791C8.05689 8.58882 7.52275 8.819 6.9658 8.819V8.819Z" stroke="white" stroke-width="1.2" stroke-linejoin="round"/>
</svg>
