<svg width="13" height="13" viewBox="0 0 13 13" fill="none" xmlns="http://www.w3.org/2000/svg">
<path d="M3.10944 12.7545C2.69694 12.7545 2.34394 12.6241 2.05044 12.3632C1.75644 12.1019 1.60944 11.7879 1.60944 11.4212V2.75452C1.39694 2.75452 1.21869 2.69074 1.07469 2.56318C0.931186 2.43518 0.859436 2.27674 0.859436 2.08785C0.859436 1.89896 0.931186 1.74052 1.07469 1.61252C1.21869 1.48496 1.39694 1.42118 1.60944 1.42118H4.60944C4.60944 1.23229 4.68144 1.07385 4.82544 0.94585C4.96894 0.818294 5.14694 0.754517 5.35944 0.754517H8.35944C8.57194 0.754517 8.75019 0.818294 8.89419 0.94585C9.03769 1.07385 9.10944 1.23229 9.10944 1.42118H12.1094C12.3219 1.42118 12.4999 1.48496 12.6434 1.61252C12.7874 1.74052 12.8594 1.89896 12.8594 2.08785C12.8594 2.27674 12.7874 2.43518 12.6434 2.56318C12.4999 2.69074 12.3219 2.75452 12.1094 2.75452V11.4212C12.1094 11.7879 11.9627 12.1019 11.6692 12.3632C11.3752 12.6241 11.0219 12.7545 10.6094 12.7545H3.10944ZM3.10944 2.75452V11.4212H10.6094V2.75452H3.10944ZM6.85944 8.02118L8.28444 9.28785C8.43444 9.41007 8.61269 9.47118 8.81919 9.47118C9.02519 9.47118 9.19694 9.41007 9.33444 9.28785C9.48444 9.15452 9.55944 8.99607 9.55944 8.81252C9.55944 8.62941 9.48444 8.47674 9.33444 8.35452L7.90944 7.08785L9.33444 5.82118C9.48444 5.68785 9.55944 5.52941 9.55944 5.34585C9.55944 5.16274 9.48444 5.01007 9.33444 4.88785C9.19694 4.75452 9.02519 4.68785 8.81919 4.68785C8.61269 4.68785 8.43444 4.75452 8.28444 4.88785L6.85944 6.15452L5.43444 4.88785C5.29694 4.75452 5.12519 4.68785 4.91919 4.68785C4.71269 4.68785 4.53444 4.75452 4.38444 4.88785C4.24694 5.01007 4.17819 5.16274 4.17819 5.34585C4.17819 5.52941 4.24694 5.68785 4.38444 5.82118L5.80944 7.08785L4.38444 8.35452C4.24694 8.47674 4.17819 8.62941 4.17819 8.81252C4.17819 8.99607 4.24694 9.15452 4.38444 9.28785C4.53444 9.41007 4.71269 9.47118 4.91919 9.47118C5.12519 9.47118 5.29694 9.41007 5.43444 9.28785L6.85944 8.02118Z" fill="black"/>
</svg>
