<svg width="13" height="13" viewBox="0 0 13 13" fill="none" xmlns="http://www.w3.org/2000/svg">
<path fill-rule="evenodd" clip-rule="evenodd" d="M2.2314 10.2435C1.29019 9.2124 0.717847 7.85126 0.717847 6.35869C0.717847 3.14041 3.37838 0.531555 6.66018 0.531555C9.9417 0.531555 12.6022 3.14041 12.6022 6.35869C12.6022 8.6344 11.2715 10.6044 9.33216 11.5638C8.10404 12.202 6.73947 12.5341 5.35496 12.5315C3.59444 12.5315 1.95868 12.0061 0.602234 11.1067C0.602234 11.1067 1.51197 11.0075 2.23055 10.2433H2.23112L2.2314 10.2435ZM9.45149 9.24297C10.9891 7.7084 10.9891 5.22012 9.45149 3.68498C8.7677 3.00036 7.85437 2.59256 6.8874 2.54012C6.85936 1.84098 7.23625 1.36898 7.23796 1.3667V1.36641C6.12843 1.58 5.10873 2.12139 4.31101 2.92041C3.69495 3.53368 3.22925 4.28085 2.95027 5.10355C2.98976 4.99898 3.03411 4.89555 3.08276 4.79384C3.02667 4.93669 2.97602 5.08241 2.93023 5.23155C2.48009 6.59612 2.79774 8.15783 3.88461 9.24297C5.42192 10.7778 7.91418 10.7778 9.45149 9.24297Z" fill="white"/>
</svg>
