<svg width="19" height="21" viewBox="0 0 19 21" fill="none" xmlns="http://www.w3.org/2000/svg">
<path d="M5.95635 15.782L6.32437 16.1822L6.6924 15.782L9.5896 12.6318L12.4868 15.782L12.8548 16.1822L13.2228 15.782L14.4927 14.4013L14.8039 14.0629L14.4927 13.7244L11.5387 10.5125L14.4927 7.30061L14.8039 6.96215L14.4927 6.62368L13.2228 5.24299L12.8548 4.84282L12.4868 5.24299L9.5896 8.39319L6.6924 5.24299L6.32437 4.84282L5.95635 5.24299L4.68654 6.62368L4.37526 6.96215L4.68654 7.30061L7.64048 10.5125L4.68654 13.7244L4.37526 14.0629L4.68654 14.4013L5.95635 15.782ZM6.26476 19.1449L6.26454 19.1448C5.21922 18.6546 4.31238 17.9907 3.54055 17.1515C2.76849 16.312 2.15396 15.3215 1.69903 14.1744L1.69895 14.1742C1.2471 13.0363 1.01953 11.8172 1.01953 10.5125C1.01953 9.20781 1.2471 7.9887 1.69895 6.85082L1.69903 6.85062C2.15396 5.70356 2.76849 4.713 3.54055 3.87353C4.31237 3.03431 5.21921 2.37005 6.26454 1.87924C7.29965 1.39389 8.40605 1.15039 9.5896 1.15039C10.7731 1.15039 11.8794 1.39386 12.9144 1.87914C13.9599 2.36995 14.8668 3.03425 15.6387 3.87353C16.4107 4.713 17.0252 5.70355 17.4802 6.85062L17.4802 6.85082C17.9321 7.9887 18.1597 9.20781 18.1597 10.5125C18.1597 11.8172 17.9321 13.0363 17.4802 14.1742L17.4802 14.1744C17.0252 15.3215 16.4107 16.312 15.6387 17.1515C14.8668 17.9907 13.96 18.6546 12.9147 19.1448L12.9144 19.1449C11.8794 19.6308 10.773 19.8746 9.5896 19.8746C8.40615 19.8746 7.29983 19.6308 6.26476 19.1449Z" fill="white" stroke="white"/>
</svg>
