<svg width="13" height="13" viewBox="0 0 13 13" fill="none" xmlns="http://www.w3.org/2000/svg">
<path d="M4.43964 3.62518C4.25075 3.62518 4.09253 3.6856 3.96497 3.80644C3.83697 3.92771 3.77297 4.07781 3.77297 4.25676V8.67781C3.77297 8.85676 3.83697 9.00665 3.96497 9.12749C4.09253 9.24876 4.25075 9.30939 4.43964 9.30939C4.43964 8.64623 4.55075 8.10139 4.77297 7.67486L5.1063 7.03571V4.25676C5.1063 4.07781 5.04253 3.92771 4.91497 3.80644C4.78697 3.6856 4.62853 3.62518 4.43964 3.62518ZM6.43964 5.67781C6.62853 5.56202 6.84253 5.44623 7.08164 5.33044C7.3203 5.21465 7.55075 5.13044 7.77297 5.07781V4.25676C7.77297 4.07781 7.70919 3.92771 7.58164 3.80644C7.45364 3.6856 7.29519 3.62518 7.1063 3.62518C6.91741 3.62518 6.75919 3.6856 6.63164 3.80644C6.50364 3.92771 6.43964 4.07781 6.43964 4.25676V5.67781ZM9.1063 12.4673C8.18408 12.4673 7.39808 12.1595 6.7483 11.5439C6.09808 10.9279 5.77297 10.1831 5.77297 9.30939C5.77297 8.43571 6.09808 7.69086 6.7483 7.07486C7.39808 6.45928 8.18408 6.1515 9.1063 6.1515C10.0285 6.1515 10.8147 6.45928 11.465 7.07486C12.1147 7.69086 12.4396 8.43571 12.4396 9.30939C12.4396 10.1831 12.1147 10.9279 11.465 11.5439C10.8147 12.1595 10.0285 12.4673 9.1063 12.4673ZM9.43964 9.18307V7.73044C9.43964 7.64623 9.4063 7.57255 9.33964 7.50939C9.27297 7.44623 9.19519 7.41465 9.1063 7.41465C9.01741 7.41465 8.93964 7.44623 8.87297 7.50939C8.8063 7.57255 8.77297 7.64623 8.77297 7.73044V9.16728C8.77297 9.2515 8.78964 9.33318 8.82297 9.41234C8.8563 9.49107 8.9063 9.56202 8.97297 9.62518L9.97297 10.5725C10.0396 10.6357 10.1174 10.6673 10.2063 10.6673C10.2952 10.6673 10.373 10.6357 10.4396 10.5725C10.5063 10.5094 10.5396 10.4357 10.5396 10.3515C10.5396 10.2673 10.5063 10.1936 10.4396 10.1304L9.43964 9.18307ZM5.27297 11.8357H2.43964C2.07297 11.8357 1.75919 11.7121 1.4983 11.465C1.23697 11.2174 1.1063 10.9199 1.1063 10.5725V2.36202C0.917414 2.36202 0.75897 2.3016 0.63097 2.18076C0.503414 2.0595 0.439636 1.90939 0.439636 1.73044C0.439636 1.5515 0.503414 1.40139 0.63097 1.28013C0.75897 1.15929 0.917414 1.09886 1.1063 1.09886H3.77297C3.77297 0.919917 3.83697 0.769811 3.96497 0.648548C4.09253 0.527706 4.25075 0.467285 4.43964 0.467285H7.1063C7.29519 0.467285 7.45364 0.527706 7.58164 0.648548C7.70919 0.769811 7.77297 0.919917 7.77297 1.09886H10.4396C10.6285 1.09886 10.7867 1.15929 10.9143 1.28013C11.0423 1.40139 11.1063 1.5515 11.1063 1.73044C11.1063 1.90939 11.0423 2.0595 10.9143 2.18076C10.7867 2.3016 10.6285 2.36202 10.4396 2.36202V5.07781C10.2507 5.02518 10.0312 4.98034 9.78097 4.94328C9.53119 4.90665 9.3063 4.88834 9.1063 4.88834V2.36202H2.43964V10.5725H4.63964C4.7063 10.7936 4.79519 11.0121 4.9063 11.2281C5.01741 11.4437 5.13964 11.6462 5.27297 11.8357Z" fill="white"/>
</svg>
