<svg width="13" height="13" viewBox="0 0 13 13" fill="none" xmlns="http://www.w3.org/2000/svg">
<path d="M7.56397 9.80542H8.76397C9.01397 9.80542 9.22637 9.69592 9.40117 9.47692C9.57637 9.25842 9.66397 8.99292 9.66397 8.68042V5.68042H9.81396C9.94396 5.68042 10.0516 5.62717 10.1368 5.52067C10.2216 5.41467 10.264 5.28042 10.264 5.11792C10.264 4.95542 10.2216 4.82092 10.1368 4.71442C10.0516 4.60842 9.94396 4.55542 9.81396 4.55542H8.76397V4.36792C8.76397 4.20542 8.72157 4.07092 8.63677 3.96442C8.55157 3.85842 8.44396 3.80542 8.31396 3.80542H8.01397C7.88397 3.80542 7.77657 3.85842 7.69177 3.96442C7.60657 4.07092 7.56397 4.20542 7.56397 4.36792V4.55542H6.51397C6.38397 4.55542 6.27657 4.60842 6.19177 4.71442C6.10657 4.82092 6.06396 4.95542 6.06396 5.11792C6.06396 5.28042 6.10657 5.41467 6.19177 5.52067C6.27657 5.62717 6.38397 5.68042 6.51397 5.68042H6.66397V8.68042C6.66397 8.99292 6.75156 9.25842 6.92676 9.47692C7.10156 9.69592 7.31397 9.80542 7.56397 9.80542ZM7.56397 8.68042V5.68042H8.76397V8.68042H7.56397ZM1.26396 12.0554C0.933965 12.0554 0.651565 11.9087 0.416765 11.6152C0.181565 11.3212 0.0639648 10.9679 0.0639648 10.5554V1.55542C0.0639648 1.14292 0.181565 0.78992 0.416765 0.49642C0.651565 0.20242 0.933965 0.0554199 1.26396 0.0554199H4.36897C4.52896 0.0554199 4.68156 0.09292 4.82677 0.16792C4.97156 0.24292 5.09896 0.34917 5.20896 0.48667L6.06396 1.55542H10.864C11.194 1.55542 11.4766 1.70242 11.7118 1.99642C11.9466 2.28992 12.064 2.64292 12.064 3.05542V10.5554C12.064 10.9679 11.9466 11.3212 11.7118 11.6152C11.4766 11.9087 11.194 12.0554 10.864 12.0554H1.26396Z" fill="black"/>
</svg>
