<svg width="23" height="21" viewBox="0 0 23 21" fill="none" xmlns="http://www.w3.org/2000/svg">
<path d="M1.94443 0.251465C1.67893 0.251465 1.4243 0.401447 1.23657 0.668418C1.04883 0.935388 0.943359 1.29748 0.943359 1.67503C0.943359 2.05258 1.04883 2.41467 1.23657 2.68165C1.4243 2.94862 1.67893 3.0986 1.94443 3.0986H21.2985C21.564 3.0986 21.8186 2.94862 22.0064 2.68165C22.1941 2.41467 22.2996 2.05258 22.2996 1.67503C22.2996 1.29748 22.1941 0.935388 22.0064 0.668418C21.8186 0.401447 21.564 0.251465 21.2985 0.251465H1.94443ZM1.94443 5.94573C1.67893 5.94573 1.4243 6.09571 1.23657 6.36268C1.04883 6.62965 0.943359 6.99174 0.943359 7.3693C0.943359 7.74685 1.04883 8.10894 1.23657 8.37591C1.4243 8.64288 1.67893 8.79286 1.94443 8.79286H21.2985C21.564 8.79286 21.8186 8.64288 22.0064 8.37591C22.1941 8.10894 22.2996 7.74685 22.2996 7.3693C22.2996 6.99174 22.1941 6.62965 22.0064 6.36268C21.8186 6.09571 21.564 5.94573 21.2985 5.94573H1.94443ZM0.943359 13.0636C0.943359 12.686 1.04883 12.3239 1.23657 12.057C1.4243 11.79 1.67893 11.64 1.94443 11.64H21.2985C21.564 11.64 21.8186 11.79 22.0064 12.057C22.1941 12.3239 22.2996 12.686 22.2996 13.0636C22.2996 13.4411 22.1941 13.8032 22.0064 14.0702C21.8186 14.3371 21.564 14.4871 21.2985 14.4871H1.94443C1.67893 14.4871 1.4243 14.3371 1.23657 14.0702C1.04883 13.8032 0.943359 13.4411 0.943359 13.0636ZM1.94443 17.3343C1.67893 17.3343 1.4243 17.4842 1.23657 17.7512C1.04883 18.0182 0.943359 18.3803 0.943359 18.7578C0.943359 19.1354 1.04883 19.4975 1.23657 19.7644C1.4243 20.0314 1.67893 20.1814 1.94443 20.1814H14.6247C14.8902 20.1814 15.1448 20.0314 15.3325 19.7644C15.5203 19.4975 15.6257 19.1354 15.6257 18.7578C15.6257 18.3803 15.5203 18.0182 15.3325 17.7512C15.1448 17.4842 14.8902 17.3343 14.6247 17.3343H1.94443Z" fill="white"/>
</svg>
