<svg width="13" height="13" viewBox="0 0 13 13" fill="none" xmlns="http://www.w3.org/2000/svg">
<path d="M9.93551 1.80835H9.33551V0.717285H8.13551V1.80835H3.33551V0.717285H2.13551V1.80835H1.38551C1.12151 1.84654 0.87551 1.95565 0.68351 2.12476C0.49751 2.29933 0.37751 2.523 0.33551 2.76304V10.6733C0.37751 10.9133 0.49751 11.137 0.68351 11.3116C0.87551 11.4807 1.12151 11.5898 1.38551 11.628H7.53551V10.5369H1.53551V5.08156H9.93551V6.17262H11.1355V2.89942C11.1355 2.29388 10.6015 1.80835 9.93551 1.80835ZM9.93551 3.99049H1.53551V2.89942H9.93551V3.99049ZM8.73551 11.628L9.81551 12.5936C10.1155 12.8663 10.5355 12.6481 10.5355 12.3262V9.99136L12.2155 8.13655C12.2824 8.0555 12.3231 7.95912 12.3331 7.85822C12.3431 7.75732 12.322 7.65587 12.2722 7.56526C12.2223 7.47464 12.1457 7.39843 12.0509 7.34517C11.9562 7.2919 11.8469 7.26369 11.7355 7.26369H7.53551C7.05551 7.26369 6.75551 7.80923 7.05551 8.13655L8.73551 9.99136V11.628Z" fill="white"/>
</svg>
