<svg width="13" height="13" viewBox="0 0 13 13" fill="none" xmlns="http://www.w3.org/2000/svg">
<path d="M7.96051 11.6307C7.36717 11.6307 6.78715 11.4683 6.2938 11.164C5.80045 10.8598 5.41594 10.4273 5.18887 9.92126C4.96181 9.41525 4.9024 8.85844 5.01816 8.32127C5.13391 7.78409 5.41963 7.29066 5.83919 6.90338C6.25875 6.51609 6.7933 6.25235 7.37524 6.1455C7.95718 6.03865 8.56038 6.09349 9.10856 6.30308C9.65674 6.51268 10.1253 6.86762 10.4549 7.32302C10.7846 7.77841 10.9605 8.31382 10.9605 8.86152C10.9605 9.59596 10.6444 10.3003 10.0818 10.8197C9.51922 11.339 8.75616 11.6307 7.96051 11.6307ZM7.96051 6.78459C7.5155 6.78459 7.08049 6.9064 6.71048 7.13462C6.34047 7.36283 6.05208 7.6872 5.88178 8.06671C5.71149 8.44622 5.66693 8.86382 5.75374 9.2667C5.84056 9.66959 6.05485 10.0397 6.36952 10.3301C6.68419 10.6206 7.0851 10.8184 7.52156 10.8985C7.95802 10.9787 8.41042 10.9375 8.82155 10.7803C9.23268 10.6231 9.58408 10.3569 9.83132 10.0154C10.0786 9.67385 10.2105 9.27229 10.2105 8.86152C10.2105 8.31068 9.97346 7.78241 9.5515 7.39291C9.12955 7.00341 8.55725 6.78459 7.96051 6.78459Z" fill="white"/>
<path d="M8.55676 9.89998L7.58551 9.00344V7.4769H8.33551V8.71959L9.08551 9.4119L8.55676 9.89998Z" fill="white"/>
<path d="M10.5855 3.32306C10.5855 3.13945 10.5065 2.96336 10.3658 2.83353C10.2252 2.70369 10.0344 2.63075 9.83551 2.63075H8.33551V1.93845H7.58551V2.63075H4.58551V1.93845H3.83551V2.63075H2.33551C2.1366 2.63075 1.94583 2.70369 1.80518 2.83353C1.66453 2.96336 1.58551 3.13945 1.58551 3.32306V10.2461C1.58551 10.4298 1.66453 10.6058 1.80518 10.7357C1.94583 10.8655 2.1366 10.9384 2.33551 10.9384H3.83551V10.2461H2.33551V3.32306H3.83551V4.01537H4.58551V3.32306H7.58551V4.01537H8.33551V3.32306H9.83551V5.39998H10.5855V3.32306Z" fill="white"/>
</svg>
