<svg width="15" height="14" viewBox="0 0 15 14" fill="none" xmlns="http://www.w3.org/2000/svg">
<path d="M1.58551 11.5667V6.92876C1.58548 6.60609 1.65214 6.2868 1.78141 5.99047C1.91068 5.69413 2.09984 5.42698 2.33731 5.20539L6.76111 1.07594C6.98391 0.867879 7.2789 0.751953 7.58551 0.751953C7.89212 0.751953 8.18711 0.867879 8.40991 1.07594L12.8337 5.20539C13.0712 5.42698 13.2603 5.69413 13.3896 5.99047C13.5189 6.2868 13.5855 6.60609 13.5855 6.92876V11.5667C13.5855 11.881 13.4591 12.1825 13.234 12.4048C13.009 12.6271 12.7038 12.752 12.3855 12.752H2.78551C2.46725 12.752 2.16203 12.6271 1.93698 12.4048C1.71194 12.1825 1.58551 11.881 1.58551 11.5667Z" fill="black" stroke="#171821" stroke-width="1.2" stroke-linecap="round" stroke-linejoin="round"/>
</svg>
