<svg width="13" height="13" viewBox="0 0 13 13" fill="none" xmlns="http://www.w3.org/2000/svg">
<path d="M1.31628 10.5725V1.73044H5.62397V6.1515H9.93166V6.78307C10.3624 6.78307 10.7747 6.86518 11.1624 7.00413V4.25676L7.47013 0.467285H1.31628C0.633203 0.467285 0.0855103 1.02939 0.0855103 1.73044V10.5725C0.0855103 10.9076 0.21518 11.2288 0.445994 11.4657C0.676808 11.7026 0.989859 11.8357 1.31628 11.8357H6.45474C6.31936 11.4378 6.23936 11.0147 6.23936 10.5725H1.31628ZM6.85474 1.41465L10.2394 4.88834H6.85474V1.41465ZM12.0855 9.46729L9.16243 12.4673L7.47013 10.5725L8.18397 9.83992L9.16243 10.8441L11.3717 8.57676L12.0855 9.46729Z" fill="white"/>
</svg>
