<svg width="13" height="13" viewBox="0 0 13 13" fill="none" xmlns="http://www.w3.org/2000/svg">
<path d="M5.46126 2.01668V0.68335H6.7946V2.01668H5.46126ZM5.46126 12.6833V11.35H6.7946V12.6833H5.46126ZM2.7946 2.01668V0.68335H4.12793V2.01668H2.7946ZM2.7946 12.6833V11.35H4.12793V12.6833H2.7946ZM2.32793 8.88335L0.594596 7.15002C0.461263 7.01668 0.394596 6.86113 0.394596 6.68335C0.394596 6.50557 0.461263 6.35002 0.594596 6.21668L2.32793 4.48335C2.45015 4.36113 2.60304 4.29713 2.7866 4.29135C2.96971 4.28602 3.12793 4.35002 3.26126 4.48335C3.38349 4.60557 3.4446 4.76113 3.4446 4.95002C3.4446 5.13891 3.38349 5.29446 3.26126 5.41668L2.67793 6.01668H6.12793C6.31682 6.01668 6.47526 6.08046 6.60326 6.20802C6.73082 6.33602 6.7946 6.49446 6.7946 6.68335C6.7946 6.87224 6.73082 7.03046 6.60326 7.15802C6.47526 7.28602 6.31682 7.35002 6.12793 7.35002H2.67793L3.27793 7.95002C3.40015 8.07224 3.46126 8.22491 3.46126 8.40802C3.46126 8.59157 3.3946 8.75002 3.26126 8.88335C3.13904 9.00557 2.98349 9.06668 2.7946 9.06668C2.60571 9.06668 2.45015 9.00557 2.32793 8.88335ZM9.46126 11.35H10.7946V2.01668H9.46126V11.35ZM9.46126 12.6833C9.0946 12.6833 8.78082 12.5529 8.51993 12.292C8.2586 12.0307 8.12793 11.7167 8.12793 11.35V2.01668C8.12793 1.65002 8.2586 1.33602 8.51993 1.07468C8.78082 0.813794 9.0946 0.68335 9.46126 0.68335H10.7946C11.1613 0.68335 11.4753 0.813794 11.7366 1.07468C11.9975 1.33602 12.1279 1.65002 12.1279 2.01668V11.35C12.1279 11.7167 11.9975 12.0307 11.7366 12.292C11.4753 12.5529 11.1613 12.6833 10.7946 12.6833H9.46126ZM1.46126 12.6833C1.0946 12.6833 0.780596 12.5529 0.519263 12.292C0.258374 12.0307 0.12793 11.7167 0.12793 11.35H1.46126V12.6833ZM0.12793 2.01668C0.12793 1.65002 0.258374 1.33602 0.519263 1.07468C0.780596 0.813794 1.0946 0.68335 1.46126 0.68335V2.01668H0.12793Z" fill="black"/>
</svg>
