<svg width="22" height="21" viewBox="0 0 22 21" fill="none" xmlns="http://www.w3.org/2000/svg">
<path d="M14.8139 12.9388C15.0019 13.021 15.1943 13.0292 15.3912 12.9634C15.5874 12.8976 15.7196 12.7743 15.788 12.5934C15.9247 12.2973 16.0187 11.9973 16.07 11.6933C16.1212 11.3887 16.1469 11.0802 16.1469 10.7676C16.1469 10.1426 16.0231 9.52155 15.7757 8.90443C15.5275 8.28796 15.1557 7.74124 14.6601 7.26425C14.1645 6.78726 13.605 6.43363 12.9816 6.20336C12.3575 5.97309 11.7208 5.85796 11.0714 5.85796L11.5328 5.41386C11.6866 5.26583 11.7594 5.09313 11.7512 4.89576C11.7423 4.69838 11.6609 4.52568 11.5071 4.37765C11.3533 4.22962 11.1739 4.1556 10.9688 4.1556C10.7638 4.1556 10.5843 4.22962 10.4305 4.37765L8.40546 6.30205C8.30293 6.40073 8.25166 6.51587 8.25166 6.64745C8.25166 6.77904 8.30293 6.89417 8.40546 6.99286L10.4305 8.91726C10.5843 9.04884 10.7638 9.11858 10.9688 9.12647C11.1739 9.13503 11.3533 9.06529 11.5071 8.91726C11.6609 8.76923 11.7379 8.59652 11.7379 8.39915C11.7379 8.20178 11.6609 8.02907 11.5071 7.88104L10.9176 7.31359C11.379 7.31359 11.8489 7.39978 12.3274 7.57215C12.8059 7.74518 13.2161 7.99618 13.5578 8.32513C13.8996 8.65409 14.1604 9.03239 14.3402 9.46004C14.5193 9.88768 14.6088 10.3153 14.6088 10.743C14.6088 10.9403 14.5962 11.1377 14.5709 11.3351C14.5449 11.5325 14.4892 11.7216 14.4038 11.9025C14.3183 12.1328 14.3142 12.3424 14.3915 12.5312C14.468 12.7207 14.6088 12.8565 14.8139 12.9388ZM10.5331 17.1576C10.6869 17.3057 10.8663 17.3797 11.0714 17.3797C11.2764 17.3797 11.4559 17.3057 11.6097 17.1576L13.6347 15.2332C13.7373 15.1345 13.7886 15.0194 13.7886 14.8878C13.7886 14.7562 13.7373 14.6411 13.6347 14.5424L11.6097 12.618C11.4559 12.4864 11.2764 12.4164 11.0714 12.4078C10.8663 12.3999 10.6869 12.47 10.5331 12.618C10.3793 12.7661 10.3024 12.9388 10.3024 13.1361C10.3024 13.3335 10.3793 13.5062 10.5331 13.6542L11.097 14.197C10.6185 14.2135 10.153 14.1395 9.70048 13.975C9.24727 13.8105 8.84124 13.5556 8.48236 13.2101C8.14058 12.8812 7.8798 12.5029 7.70002 12.0752C7.52093 11.6476 7.43138 11.22 7.43138 10.7923C7.43138 10.5785 7.44437 10.3768 7.47034 10.1874C7.49563 9.99854 7.551 9.80544 7.63645 9.60807C7.70481 9.42714 7.71335 9.25016 7.66208 9.07713C7.61082 8.90476 7.50828 8.76923 7.35448 8.67054C7.14941 8.53896 6.93135 8.50606 6.7003 8.57185C6.46994 8.63764 6.31204 8.76923 6.22659 8.9666C6.08988 9.26266 5.99999 9.55445 5.95692 9.84196C5.91454 10.1301 5.89335 10.4387 5.89335 10.7676C5.89335 11.3927 6.02152 12.0095 6.27786 12.618C6.5342 13.2266 6.91016 13.7694 7.40575 14.2464C7.90133 14.7234 8.45673 15.0813 9.07194 15.3201C9.68715 15.5582 10.3194 15.6856 10.9688 15.702L10.5331 16.1214C10.3793 16.2695 10.3024 16.4422 10.3024 16.6395C10.3024 16.8369 10.3793 17.0096 10.5331 17.1576ZM11.0201 20.6364C9.6017 20.6364 8.26875 20.3771 7.02124 19.8587C5.77373 19.3409 4.68857 18.6379 3.76575 17.7498C2.84294 16.8616 2.11254 15.8171 1.57458 14.6164C1.03593 13.4157 0.766602 12.1328 0.766602 10.7676C0.766602 9.40247 1.03593 8.11954 1.57458 6.91884C2.11254 5.71815 2.84294 4.67371 3.76575 3.78553C4.68857 2.89734 5.77373 2.19403 7.02124 1.67559C8.26875 1.15782 9.6017 0.898926 11.0201 0.898926C12.4385 0.898926 13.7715 1.15782 15.019 1.67559C16.2665 2.19403 17.3516 2.89734 18.2745 3.78553C19.1973 4.67371 19.9277 5.71815 20.4656 6.91884C21.0043 8.11954 21.2736 9.40247 21.2736 10.7676C21.2736 12.1328 21.0043 13.4157 20.4656 14.6164C19.9277 15.8171 19.1973 16.8616 18.2745 17.7498C17.3516 18.6379 16.2665 19.3409 15.019 19.8587C13.7715 20.3771 12.4385 20.6364 11.0201 20.6364ZM11.0201 18.6626C13.293 18.6626 15.2285 17.8938 16.8267 16.3563C18.4242 14.8181 19.2229 12.9552 19.2229 10.7676C19.2229 8.58008 18.4242 6.71719 16.8267 5.17899C15.2285 3.64144 13.293 2.87267 11.0201 2.87267C8.74724 2.87267 6.81207 3.64144 5.21457 5.17899C3.61639 6.71719 2.8173 8.58008 2.8173 10.7676C2.8173 12.9552 3.61639 14.8181 5.21457 16.3563C6.81207 17.8938 8.74724 18.6626 11.0201 18.6626Z" fill="white"/>
</svg>
