<svg width="17" height="20" viewBox="0 0 17 20" fill="none" xmlns="http://www.w3.org/2000/svg">
<path d="M9.8619 5.03621V8.36955H11.9452M10.8494 1.70288H6.94523C6.5032 1.70288 6.07928 1.87848 5.76672 2.19104C5.45416 2.5036 5.27856 2.92752 5.27856 3.36955V13.3695C5.27856 13.8116 5.45416 14.2355 5.76672 14.5481C6.07928 14.8606 6.5032 15.0362 6.94523 15.0362H13.6119C14.0539 15.0362 14.4778 14.8606 14.7904 14.5481C15.103 14.2355 15.2786 13.8116 15.2786 13.3695V6.07121C15.2785 5.84918 15.2341 5.62939 15.148 5.42475C15.0618 5.22011 14.9357 5.03475 14.7769 4.87955L12.0144 2.17788C11.703 1.87343 11.2849 1.70294 10.8494 1.70288Z" stroke="white" stroke-width="2" stroke-linecap="round" stroke-linejoin="round"/>
<path d="M11.9453 15.0363V16.703C11.9453 17.145 11.7697 17.5689 11.4572 17.8815C11.1446 18.194 10.7207 18.3696 10.2786 18.3696H3.61198C3.16995 18.3696 2.74603 18.194 2.43347 17.8815C2.12091 17.5689 1.94531 17.145 1.94531 16.703V7.5363C1.94531 7.09427 2.12091 6.67034 2.43347 6.35778C2.74603 6.04522 3.16995 5.86963 3.61198 5.86963H5.27865" stroke="white" stroke-width="2" stroke-linecap="round" stroke-linejoin="round"/>
<path d="M9.8619 5.03621V8.36955H11.9452M10.8494 1.70288H6.94523C6.5032 1.70288 6.07928 1.87848 5.76672 2.19104C5.45416 2.5036 5.27856 2.92752 5.27856 3.36955V13.3695C5.27856 13.8116 5.45416 14.2355 5.76672 14.5481C6.07928 14.8606 6.5032 15.0362 6.94523 15.0362H13.6119C14.0539 15.0362 14.4778 14.8606 14.7904 14.5481C15.103 14.2355 15.2786 13.8116 15.2786 13.3695V6.07121C15.2785 5.84918 15.2341 5.62939 15.148 5.42475C15.0618 5.22011 14.9357 5.03475 14.7769 4.87955L12.0144 2.17788C11.703 1.87343 11.2849 1.70294 10.8494 1.70288Z" stroke="white" stroke-width="2" stroke-linecap="round" stroke-linejoin="round"/>
<path d="M11.9453 15.0363V16.703C11.9453 17.145 11.7697 17.5689 11.4572 17.8815C11.1446 18.194 10.7207 18.3696 10.2786 18.3696H3.61198C3.16995 18.3696 2.74603 18.194 2.43347 17.8815C2.12091 17.5689 1.94531 17.145 1.94531 16.703V7.5363C1.94531 7.09427 2.12091 6.67034 2.43347 6.35778C2.74603 6.04522 3.16995 5.86963 3.61198 5.86963H5.27865" stroke="white" stroke-width="2" stroke-linecap="round" stroke-linejoin="round"/>
</svg>
