<svg width="22" height="21" viewBox="0 0 22 21" fill="none" xmlns="http://www.w3.org/2000/svg">
<g clip-path="url(#clip0_68_77)">
<path d="M9.73821 10.0229C10.4461 10.0229 11.0199 9.46331 11.0199 8.77295C11.0199 8.08259 10.4461 7.52295 9.73821 7.52295C9.03037 7.52295 8.45654 8.08259 8.45654 8.77295C8.45654 9.46331 9.03037 10.0229 9.73821 10.0229Z" fill="white"/>
<path d="M13.5833 18.773C13.4992 18.773 13.4158 18.7569 13.3381 18.7255C13.2603 18.6941 13.1897 18.648 13.1303 18.5898L6.26884 11.898C6.02923 11.6631 5.89429 11.3455 5.89331 11.0142V6.27295C5.89365 5.94153 6.02879 5.62378 6.26908 5.38944C6.50936 5.15509 6.83517 5.02328 7.17498 5.02295H12.0364C12.2047 5.02251 12.3715 5.05465 12.5271 5.11752C12.6826 5.18039 12.8238 5.27273 12.9425 5.3892L19.8039 12.0811C19.9241 12.1983 19.9916 12.3572 19.9916 12.523C19.9916 12.6887 19.9241 12.8476 19.8039 12.9648L14.0364 18.5898C13.977 18.648 13.9064 18.6941 13.8286 18.7255C13.7509 18.7569 13.6675 18.773 13.5833 18.773ZM7.17498 6.27295V11.0142L13.5833 17.2642L18.4447 12.523L12.0364 6.27295H7.17498Z" fill="white"/>
<path d="M9.37218 21.2729H3.51311C3.12475 21.2726 2.7524 21.1219 2.47779 20.8541C2.20318 20.5863 2.04873 20.2231 2.04834 19.8444V2.70152C2.04873 2.32276 2.20318 1.95961 2.47779 1.69179C2.7524 1.42396 3.12475 1.27333 3.51311 1.27295H21.0903C21.4787 1.27333 21.851 1.42396 22.1256 1.69179C22.4002 1.95961 22.5547 2.32276 22.5551 2.70152V8.41581H21.0903V2.70152H3.51311V19.8444H9.37218V21.2729Z" fill="white"/>
</g>
<defs>
<clipPath id="clip0_68_77">
<rect width="20.5068" height="20" fill="white" transform="translate(0.766602 0.0229492)"/>
</clipPath>
</defs>
</svg>
