<svg width="21" height="21" viewBox="0 0 21 21" fill="none" xmlns="http://www.w3.org/2000/svg">
<path d="M15.8951 10.1861H17.5799V0.544434L0.815918 17.2111H10.5055V15.5444H4.86441L15.8951 4.56943V10.1861ZM20.7399 17.4778L19.843 16.7861C19.8598 16.6528 19.8765 16.5194 19.8765 16.3778C19.8765 16.2361 19.8681 16.1028 19.843 15.9694L20.7315 15.2778C20.7691 15.2457 20.7947 15.2017 20.8038 15.1532C20.8129 15.1047 20.8052 15.0546 20.7818 15.0111L19.9436 13.5694C19.8933 13.4778 19.7843 13.4444 19.6837 13.4778L18.6444 13.8944C18.4264 13.7278 18.1917 13.5861 17.9319 13.4861L17.7726 12.3861C17.7643 12.2861 17.6721 12.2111 17.5715 12.2111H15.8951C15.7945 12.2111 15.7023 12.2861 15.6855 12.3861L15.5263 13.4861C15.2748 13.5944 15.0317 13.7278 14.8138 13.8944L13.7744 13.4778C13.6822 13.4444 13.5733 13.4778 13.5146 13.5694L12.6764 15.0111C12.6261 15.1028 12.6429 15.2111 12.7267 15.2778L13.6152 15.9694C13.5807 16.2406 13.5807 16.515 13.6152 16.7861L12.7267 17.4778C12.689 17.5099 12.6635 17.5538 12.6544 17.6023C12.6452 17.6508 12.653 17.7009 12.6764 17.7444L13.5146 19.1861C13.5649 19.2778 13.6739 19.3111 13.7744 19.2778L14.8138 18.8611C15.0317 19.0278 15.2664 19.1694 15.5263 19.2694L15.6855 20.3694C15.7023 20.4694 15.7861 20.5444 15.8951 20.5444H17.5715C17.6721 20.5444 17.7643 20.4694 17.781 20.3694L17.9403 19.2694C18.1917 19.1611 18.4348 19.0278 18.6444 18.8611L19.6921 19.2778C19.7843 19.3111 19.8933 19.2778 19.952 19.1861L20.7902 17.7444C20.8136 17.7009 20.8213 17.6508 20.8122 17.6023C20.803 17.5538 20.7775 17.5099 20.7399 17.4778ZM16.7333 17.6278C16.0376 17.6278 15.476 17.0694 15.476 16.3778C15.476 15.6861 16.0376 15.1278 16.7333 15.1278C17.429 15.1278 17.9906 15.6861 17.9906 16.3778C17.9906 17.0694 17.429 17.6278 16.7333 17.6278Z" fill="white"/>
</svg>
