<svg width="13" height="13" viewBox="0 0 13 13" fill="none" xmlns="http://www.w3.org/2000/svg">
<path d="M0.835571 11.2673V5.26729L4.65375 2.26729L8.47194 5.26729V5.67229C8.26284 5.78229 8.06739 5.90969 7.88557 6.05449C7.70375 6.19969 7.53557 6.36229 7.38103 6.54229V5.86729L4.65375 3.73729L1.92648 5.86729V10.0673H3.01739V7.06729H6.29012V10.0673H6.33103C6.3583 10.2773 6.39921 10.4823 6.45375 10.6823C6.5083 10.8823 6.57648 11.0773 6.6583 11.2673H5.19921V8.26729H4.1083V11.2673H0.835571ZM12.8356 0.467285V6.54229C12.681 6.36229 12.5128 6.19969 12.331 6.05449C12.1492 5.90969 11.9538 5.78229 11.7447 5.67229V1.66729H6.83557V2.50729L5.74466 1.63729V0.467285H12.8356ZM9.56284 4.06729H10.6538V2.86729H9.56284V4.06729ZM10.1083 12.4673C9.35375 12.4673 8.71066 12.1749 8.17903 11.5901C7.64703 11.0049 7.38103 10.2973 7.38103 9.46729C7.38103 8.63729 7.64703 7.92969 8.17903 7.34449C8.71066 6.75969 9.35375 6.46729 10.1083 6.46729C10.8628 6.46729 11.5061 6.75969 12.0381 7.34449C12.5698 7.92969 12.8356 8.63729 12.8356 9.46729C12.8356 10.2973 12.5698 11.0049 12.0381 11.5901C11.5061 12.1749 10.8628 12.4673 10.1083 12.4673ZM9.83557 11.2673H10.381V9.76729H11.7447V9.16729H10.381V7.66729H9.83557V9.16729H8.47194V9.76729H9.83557V11.2673Z" fill="white"/>
</svg>
